# xmcd
#
# Track frame offsets: 
#        150
#        10140
#        20467
#        32889
#        44124
#        52633
#        63525
#        74634
#        87252
#        99464
#        107881
#        119956
#
# Disc length: 1752 seconds
#
# Revision: 0
# Processed by: cddbd v1.5.1PL2 Copyright (c) Steve Scherf et al.
# Submitted via: ExactAudioCopy v0.95b1
#
DISCID=ab06d60c
DTITLE=Johnny Cash - Sings The Songs That Made Him Famous
DYEAR=1958
DGENRE=Country
TTITLE0=Ballad Of A Teenage Queen
TTITLE1=There You Go
TTITLE2=I Walk The Line
TTITLE3=Don't Make Me Go
TTITLE4=Guess Things Happen That Way
TTITLE5=Train Of Love
TTITLE6=The Ways Of A Woman In Love
TTITLE7=Next In Line
TTITLE8=You're The Nearest Thing To Heaven
TTITLE9=I Can't Help It
TTITLE10=Home Of The Blues
TTITLE11=Big River
EXTD=
EXTT0=
EXTT1=
EXTT2=
EXTT3=
EXTT4=
EXTT5=
EXTT6=
EXTT7=
EXTT8=
EXTT9=
EXTT10=
EXTT11=
PLAYORDER=
